HIERARCHY
ROOT Hips
{
	OFFSET 0.000000 121.760803 0.000000
	CHANNELS 6 Xposition Yposition Zposition Xrotation Yrotation Zrotation 
	JOINT Spine
	{
		OFFSET 0.072000 7.257294 -0.789700
		CHANNELS 3 Xrotation Yrotation Zrotation
		JOINT Spine1
		{
			OFFSET 0.000000 12.508769 -0.658067
			CHANNELS 3 Xrotation Yrotation Zrotation
			JOINT Spine1_split
			{
				OFFSET 0.000000 12.508769 -0.658067
				CHANNELS 3 Xrotation Yrotation Zrotation
				JOINT Spine2
				{
					OFFSET 0.000000 12.508769 -0.658067
					CHANNELS 3 Xrotation Yrotation Zrotation
					JOINT Neck
					{
						OFFSET 0.000000 14.033295 7.520400
						CHANNELS 3 Xrotation Yrotation Zrotation
						JOINT Head
						{
							OFFSET 0.000000 8.198502 5.703100
							CHANNELS 3 Xrotation Yrotation Zrotation
							JOINT HeadTop_End
							{
								OFFSET 0.000000 17.760803 13.332701
								CHANNELS 3 Xrotation Yrotation Zrotation
								End Site
								{
									OFFSET 0.000000 0.000000 0.000000
								}
							}
						}
					}
					JOINT LeftShoulder
					{
						OFFSET 6.292450 5.785301 -0.669000
						CHANNELS 3 Xrotation Yrotation Zrotation
						JOINT LeftShoulder_split
						{
							OFFSET 6.292450 5.785301 -0.669000
							CHANNELS 3 Xrotation Yrotation Zrotation
							JOINT LeftArm
							{
								OFFSET 13.907140 -6.093903 1.965100
								CHANNELS 3 Xrotation Yrotation Zrotation
								JOINT LeftForeArm
								{
									OFFSET 34.140198 0.000000 0.000000
									CHANNELS 3 Xrotation Yrotation Zrotation
									JOINT LeftHand
									{
										OFFSET 40.960209 0.000000 0.000000
										CHANNELS 3 Xrotation Yrotation Zrotation
										JOINT LeftHandThumb1
										{
											OFFSET 10.006996 -7.170425 9.573125
											CHANNELS 3 Xrotation Yrotation Zrotation
											JOINT LeftHandThumb2
											{
												OFFSET 1.835007 -1.059448 1.059443
												CHANNELS 3 Xrotation Yrotation Zrotation
												JOINT LeftHandThumb3
												{
													OFFSET 2.112267 -1.219513 1.219518
													CHANNELS 3 Xrotation Yrotation Zrotation
													JOINT LeftHandThumb4
													{
														OFFSET 4.843811 -2.796570 2.796576
														CHANNELS 3 Xrotation Yrotation Zrotation
														End Site
														{
															OFFSET 0.000000 0.000000 0.000000
														}
													}
												}
											}
										}
										JOINT LeftHandIndex1
										{
											OFFSET 18.389847 -0.922348 4.596882
											CHANNELS 3 Xrotation Yrotation Zrotation
											JOINT LeftHandIndex2
											{
												OFFSET 4.711273 0.000000 0.000000
												CHANNELS 3 Xrotation Yrotation Zrotation
												JOINT LeftHandIndex3
												{
													OFFSET 2.886131 0.000000 0.000000
													CHANNELS 3 Xrotation Yrotation Zrotation
													JOINT LeftHandIndex4
													{
														OFFSET 6.145912 0.000000 0.000000
														CHANNELS 3 Xrotation Yrotation Zrotation
														End Site
														{
															OFFSET 0.000000 0.000000 0.000000
														}
													}
												}
											}
										}
										JOINT LeftHandMiddle1
										{
											OFFSET 18.013008 0.000000 0.000000
											CHANNELS 3 Xrotation Yrotation Zrotation
											JOINT LeftHandMiddle2
											{
												OFFSET 4.946693 0.000000 0.000000
												CHANNELS 3 Xrotation Yrotation Zrotation
												JOINT LeftHandMiddle3
												{
													OFFSET 3.342232 0.000000 0.000000
													CHANNELS 3 Xrotation Yrotation Zrotation
													JOINT LeftHandMiddle4
													{
														OFFSET 4.461754 0.000000 0.000000
														CHANNELS 3 Xrotation Yrotation Zrotation
														End Site
														{
															OFFSET 0.000000 0.000000 0.000000
														}
													}
												}
											}
										}
										JOINT LeftHandRing1
										{
											OFFSET 15.849892 -0.102921 -4.126150
											CHANNELS 3 Xrotation Yrotation Zrotation
											JOINT LeftHandRing2
											{
												OFFSET 3.527054 0.000000 0.000000
												CHANNELS 3 Xrotation Yrotation Zrotation
												JOINT LeftHandRing3
												{
													OFFSET 2.961098 0.000000 0.000000
													CHANNELS 3 Xrotation Yrotation Zrotation
													JOINT LeftHandRing4
													{
														OFFSET 4.927200 0.000000 0.000000
														CHANNELS 3 Xrotation Yrotation Zrotation
														End Site
														{
															OFFSET 0.000000 0.000000 0.000000
														}
													}
												}
											}
										}
										JOINT LeftHandPinky1
										{
											OFFSET 12.791824 -0.832031 -6.799156
											CHANNELS 3 Xrotation Yrotation Zrotation
											JOINT LeftHandPinky2
											{
												OFFSET 3.327133 0.000000 0.000000
												CHANNELS 3 Xrotation Yrotation Zrotation
												JOINT LeftHandPinky3
												{
													OFFSET 3.014900 0.000000 0.000000
													CHANNELS 3 Xrotation Yrotation Zrotation
													JOINT LeftHandPinky4
													{
														OFFSET 5.847786 0.000000 0.000000
														CHANNELS 3 Xrotation Yrotation Zrotation
														End Site
														{
															OFFSET 0.000000 0.000000 0.000000
														}
													}
												}
											}
										}
									}
								}
							}
						}
					}
					JOINT RightShoulder
					{
						OFFSET -6.292450 5.785301 -0.669000
						CHANNELS 3 Xrotation Yrotation Zrotation
						JOINT RightShoulder_split
						{
							OFFSET -6.292450 5.785301 -0.669000
							CHANNELS 3 Xrotation Yrotation Zrotation
							JOINT RightArm
							{
								OFFSET -13.907140 -6.093903 1.965100
								CHANNELS 3 Xrotation Yrotation Zrotation
								JOINT RightForeArm
								{
									OFFSET -34.140198 0.000000 0.000000
									CHANNELS 3 Xrotation Yrotation Zrotation
									JOINT RightHand
									{
										OFFSET -40.960209 0.000000 0.000000
										CHANNELS 3 Xrotation Yrotation Zrotation
										JOINT RightHandThumb1
										{
											OFFSET -10.007050 -7.170456 9.573117
											CHANNELS 3 Xrotation Yrotation Zrotation
											JOINT RightHandThumb2
											{
												OFFSET -1.835007 -1.059448 1.059443
												CHANNELS 3 Xrotation Yrotation Zrotation
												JOINT RightHandThumb3
												{
													OFFSET -2.112267 -1.219513 1.219518
													CHANNELS 3 Xrotation Yrotation Zrotation
													JOINT RightHandThumb4
													{
														OFFSET -4.843834 -2.796585 2.796590
														CHANNELS 3 Xrotation Yrotation Zrotation
														End Site
														{
															OFFSET 0.000000 0.000000 0.000000
														}
													}
												}
											}
										}
										JOINT RightHandIndex1
										{
											OFFSET -18.389870 -0.922424 4.596786
											CHANNELS 3 Xrotation Yrotation Zrotation
											JOINT RightHandIndex2
											{
												OFFSET -4.711273 0.000000 0.000000
												CHANNELS 3 Xrotation Yrotation Zrotation
												JOINT RightHandIndex3
												{
													OFFSET -2.886131 0.000000 0.000000
													CHANNELS 3 Xrotation Yrotation Zrotation
													JOINT RightHandIndex4
													{
														OFFSET -6.145920 0.000000 0.000000
														CHANNELS 3 Xrotation Yrotation Zrotation
														End Site
														{
															OFFSET 0.000000 0.000000 0.000000
														}
													}
												}
											}
										}
										JOINT RightHandMiddle1
										{
											OFFSET -18.013008 0.000000 0.000000
											CHANNELS 3 Xrotation Yrotation Zrotation
											JOINT RightHandMiddle2
											{
												OFFSET -4.946693 0.000000 0.000000
												CHANNELS 3 Xrotation Yrotation Zrotation
												JOINT RightHandMiddle3
												{
													OFFSET -3.342232 0.000000 0.000000
													CHANNELS 3 Xrotation Yrotation Zrotation
													JOINT RightHandMiddle4
													{
														OFFSET -4.461754 0.000000 0.000000
														CHANNELS 3 Xrotation Yrotation Zrotation
														End Site
														{
															OFFSET 0.000000 0.000000 0.000000
														}
													}
												}
											}
										}
										JOINT RightHandRing1
										{
											OFFSET -15.849876 -0.102936 -4.126237
											CHANNELS 3 Xrotation Yrotation Zrotation
											JOINT RightHandRing2
											{
												OFFSET -3.527054 0.000000 0.000000
												CHANNELS 3 Xrotation Yrotation Zrotation
												JOINT RightHandRing3
												{
													OFFSET -2.961098 0.000000 0.000000
													CHANNELS 3 Xrotation Yrotation Zrotation
													JOINT RightHandRing4
													{
														OFFSET -4.927200 0.000000 0.000000
														CHANNELS 3 Xrotation Yrotation Zrotation
														End Site
														{
															OFFSET 0.000000 0.000000 0.000000
														}
													}
												}
											}
										}
										JOINT RightHandPinky1
										{
											OFFSET -12.791786 -0.832077 -6.799222
											CHANNELS 3 Xrotation Yrotation Zrotation
											JOINT RightHandPinky2
											{
												OFFSET -3.327133 0.000000 0.000000
												CHANNELS 3 Xrotation Yrotation Zrotation
												JOINT RightHandPinky3
												{
													OFFSET -3.014900 0.000000 0.000000
													CHANNELS 3 Xrotation Yrotation Zrotation
													JOINT RightHandPinky4
													{
														OFFSET -5.847786 0.000000 0.000000
														CHANNELS 3 Xrotation Yrotation Zrotation
														End Site
														{
															OFFSET 0.000000 0.000000 0.000000
														}
													}
												}
											}
										}
									}
								}
							}
						}
					}
				}
			}
		}
	}
	JOINT LeftUpLeg
	{
		OFFSET 13.026900 -6.336304 -1.092800
		CHANNELS 3 Xrotation Yrotation Zrotation
		JOINT LeftLeg
		{
			OFFSET 0.524474 -46.096886 9.782700
			CHANNELS 3 Xrotation Yrotation Zrotation
			JOINT LeftFoot
			{
				OFFSET -0.524474 -53.427422 -12.948200
				CHANNELS 3 Xrotation Yrotation Zrotation
				JOINT LeftToeBase
				{
					OFFSET 0.192200 -14.009700 16.364100
					CHANNELS 3 Xrotation Yrotation Zrotation
					JOINT LeftToe_End
					{
						OFFSET -1.784700 -0.561700 9.474800
						CHANNELS 3 Xrotation Yrotation Zrotation
						End Site
						{
							OFFSET 0.000000 0.000000 0.000000
						}
					}
				}
			}
		}
	}
	JOINT RightUpLeg
	{
		OFFSET -12.883000 -6.336304 -1.092800
		CHANNELS 3 Xrotation Yrotation Zrotation
		JOINT RightLeg
		{
			OFFSET -0.524587 -46.096825 9.782800
			CHANNELS 3 Xrotation Yrotation Zrotation
			JOINT RightFoot
			{
				OFFSET 0.524587 -53.427383 -12.948300
				CHANNELS 3 Xrotation Yrotation Zrotation
				JOINT RightToeBase
				{
					OFFSET -0.192200 -14.009700 16.364100
					CHANNELS 3 Xrotation Yrotation Zrotation
					JOINT RightToe_End
					{
						OFFSET 1.784700 -0.561700 9.474800
						CHANNELS 3 Xrotation Yrotation Zrotation
						End Site
						{
							OFFSET 0.000000 0.000000 0.000000
						}
					}
				}
			}
		}
	}
}
MOTION
Frames: 4
Frame Time: 0.016667
13.891813 117.943062 -3.568098 -0.400364 -19.201347 -2.698320 4.338166 1.261242 -1.983401 0.212745 0.451141 -0.248039 0.000000 0.000000 0.000000 0.209997 0.457550 -0.249457 -0.676047 0.363725 3.241258 11.273844 13.135224 10.728867 -0.000000 -0.000000 0.000001 2.666471 -4.458569 -11.991961 0.000000 0.000000 0.000000 -11.925379 -18.438345 -60.942616 0.000004 -15.296895 0.000010 21.654162 -9.509530 -12.534860 3.397821 -6.557753 3.595374 15.782404 22.471722 8.580121 -7.032745 9.518552 11.683309 -0.000002 -0.000001 0.000005 -1.195630 -0.465169 -28.245552 0.364154 2.035042 -20.288326 0.055321 0.804071 -7.871644 -0.000000 0.000002 -0.000000 0.355592 4.762394 -38.285997 0.507593 2.387216 -24.004932 0.209296 1.553464 -15.345791 0.000001 -0.000002 0.000002 6.487995 10.665025 -48.294027 0.477658 2.318889 -23.275645 0.453815 2.262707 -22.679220 -0.000000 -0.000000 0.000000 12.833101 15.275981 -52.520104 0.697262 2.773810 -28.215320 1.059318 3.361600 -34.972846 0.000000 -0.000001 -0.000001 2.229752 0.129000 15.927385 0.000000 0.000000 0.000000 5.674420 -0.408654 64.436954 0.000008 15.408097 -0.000004 1.035990 6.325152 -5.049648 -1.352773 9.111909 0.370102 16.874361 -29.512797 -6.239170 -14.986386 -10.661151 -18.063069 0.000000 -0.000003 -0.000002 -1.055115 2.974102 11.633301 0.216276 -1.404174 17.511922 0.062041 -0.758467 9.352613 0.000001 -0.000000 0.000000 -0.609022 -1.094599 18.696401 0.373075 -1.828108 23.066800 0.371450 -1.824293 23.015866 -0.000001 0.000000 -0.000002 1.805370 -6.986254 25.613585 0.549363 -2.196235 28.084483 0.545486 -2.188954 27.983051 -0.000000 0.000000 -0.000000 4.328857 -11.691950 36.199029 0.703968 -2.463956 31.885741 0.868064 -2.709726 35.520249 -0.000000 -0.000000 0.000000 -11.741146 6.529747 -0.098083 17.259941 9.109400 2.650213 -7.373717 19.498954 0.988554 -10.632982 -0.000009 -0.000002 0.000001 0.000001 -0.000001 -14.138180 -7.338612 -10.927387 14.492480 2.761986 2.458536 -11.776203 -3.493160 6.036981 -8.407001 0.000001 -0.000006 -0.000001 -0.000001 -0.000001 
14.195724 117.952263 -3.434743 -0.322459 -19.502379 -2.813927 4.278214 1.007051 -2.047719 0.189583 0.383780 -0.265577 0.000000 0.000000 0.000000 0.187300 0.390520 -0.267591 -0.708659 0.408960 3.345581 11.332366 13.840953 11.023656 0.000000 -0.000000 -0.000000 2.653985 -4.597928 -11.892590 0.000000 0.000000 0.000000 -12.075098 -19.152996 -61.241225 -0.000002 -15.715099 0.000003 21.497062 -9.669894 -10.948862 3.397818 -6.557754 3.595376 15.782129 22.476880 8.582047 -6.906155 9.605749 11.585842 -0.000001 -0.000001 -0.000002 -1.165831 -0.588580 -27.380967 0.367674 2.044507 -20.386810 0.056525 0.812721 -7.956790 -0.000000 0.000003 0.000000 0.364653 4.782505 -38.483243 0.512355 2.397860 -24.118650 0.206247 1.542316 -15.232965 -0.000000 -0.000001 0.000000 6.537724 10.676700 -48.526875 0.471590 2.304705 -23.125074 0.448278 2.249418 -22.538472 0.000001 -0.000002 0.000002 12.766415 15.313086 -52.209549 0.688190 2.756860 -28.027514 1.060803 3.363736 -34.998238 -0.000001 -0.000000 0.000001 2.263678 -0.037342 16.070486 0.000000 0.000000 0.000000 5.438914 -0.171345 64.671469 -0.000001 15.685828 -0.000012 1.013122 5.195178 -3.929831 -1.352770 9.111908 0.370101 16.861983 -29.498334 -6.250187 -15.020576 -10.556010 -18.134772 -0.000000 0.000001 0.000003 -1.134068 2.859892 12.607722 0.219261 -1.413571 17.633018 0.056857 -0.726301 8.952635 0.000001 0.000000 0.000000 -0.612864 -1.120409 18.937864 0.356226 -1.788060 22.533011 0.363201 -1.804760 22.755318 0.000000 -0.000000 -0.000000 1.775707 -6.972114 25.217369 0.529209 -2.158062 27.553880 0.545461 -2.188905 27.982401 -0.000000 0.000000 -0.000002 4.168392 -11.681598 35.243629 0.685223 -2.433586 31.446922 0.865414 -2.706011 35.464101 -0.000000 -0.000000 -0.000000 -11.765213 6.516212 -0.147451 17.201505 9.101890 2.656371 -7.352765 19.788899 1.134654 -10.597755 0.000006 0.000001 0.000001 0.000001 -0.000000 -14.189314 -7.300066 -10.889179 14.379573 2.845725 2.466721 -11.949442 -3.491218 5.884315 -8.391436 -0.000004 -0.000001 -0.000002 -0.000003 -0.000000 
14.482382 117.965004 -3.305956 -0.220392 -19.787085 -2.907390 4.204356 0.735800 -2.137864 0.165080 0.312362 -0.289360 0.000000 0.000000 0.000000 0.163354 0.319510 -0.292050 -0.743324 0.449649 3.455309 11.434274 14.520116 11.315072 -0.000000 0.000000 -0.000000 2.633635 -4.716144 -11.762450 0.000000 0.000000 0.000000 -12.145286 -19.959017 -61.514630 -0.000010 -16.226678 -0.000017 21.493171 -9.651161 -9.215256 3.397821 -6.557753 3.595380 15.782096 22.484737 8.583420 -6.808636 9.672006 11.511691 -0.000001 -0.000002 0.000003 -1.129462 -0.729828 -26.391108 0.368811 2.047562 -20.418630 0.057706 0.821084 -8.039250 -0.000003 0.000000 0.000001 0.367278 4.788585 -38.547026 0.516970 2.408124 -24.228759 0.203848 1.533434 -15.142961 -0.000001 0.000001 -0.000001 6.588688 10.690109 -48.752473 0.466751 2.293413 -23.004987 0.442771 2.236093 -22.397783 0.000000 -0.000001 -0.000000 12.724916 15.349718 -51.963195 0.679185 2.739885 -27.839774 1.059294 3.361585 -34.972467 -0.000000 -0.000000 -0.000000 2.301184 -0.222083 16.229414 0.000000 0.000000 0.000000 5.160323 0.078142 64.897801 0.000000 15.935549 0.000009 1.068246 3.974131 -2.851382 -1.352773 9.111911 0.370097 16.865258 -29.501752 -6.248125 -15.044998 -10.477234 -18.185256 -0.000000 -0.000003 -0.000001 -1.209426 2.733156 13.613609 0.224439 -1.429760 17.841798 0.052511 -0.698128 8.602698 0.000000 0.000001 0.000003 -0.620059 -1.162465 19.354178 0.341807 -1.752907 22.066104 0.352916 -1.780052 22.426525 0.000001 -0.000000 0.000002 1.768456 -6.976984 25.051978 0.508414 -2.117757 26.996444 0.542682 -2.183672 27.909551 0.000001 -0.000000 0.000000 4.032116 -11.667261 34.463355 0.664837 -2.399968 30.963570 0.863339 -2.703106 35.420224 -0.000001 -0.000001 -0.000000 -11.803880 6.499050 -0.203432 17.126904 9.093678 2.663031 -7.330241 20.074855 1.276476 -10.562541 0.000007 0.000000 -0.000000 -0.000000 -0.000000 -14.255641 -7.261784 -10.860257 14.265315 2.884288 2.461407 -12.127698 -3.492678 5.754793 -8.375876 0.000003 -0.000001 -0.000002 -0.000001 0.000000 
14.753738 117.983177 -3.181552 -0.084147 -20.063877 -2.985234 4.107873 0.459283 -2.248798 0.138035 0.240252 -0.315974 0.000000 0.000000 0.000000 0.136932 0.247830 -0.319408 -0.779926 0.485279 3.569736 11.569300 15.164371 11.594008 -0.000000 0.000000 0.000001 2.611131 -4.805599 -11.630848 0.000000 0.000000 0.000000 -12.175091 -20.855177 -61.745265 0.000003 -16.823739 0.000002 21.773851 -9.467330 -7.469721 3.397818 -6.557754 3.595377 15.782460 22.486812 8.582358 -6.767616 9.701839 11.479332 0.000000 -0.000002 0.000001 -1.094903 -0.883135 -25.362220 0.367666 2.044536 -20.387157 0.059028 0.830384 -8.130971 0.000002 0.000003 0.000002 0.363617 4.781226 -38.484059 0.522126 2.419539 -24.351236 0.202282 1.527713 -15.084992 0.000002 0.000001 0.000001 6.647713 10.706578 -49.003605 0.463673 2.286121 -22.927593 0.437435 2.223128 -22.260596 0.000000 0.000000 -0.000002 12.730806 15.396624 -51.808832 0.670474 2.723355 -27.656735 1.054722 3.355038 -34.894429 -0.000001 -0.000000 0.000000 2.342157 -0.439311 16.405413 0.000000 0.000000 0.000000 4.855272 0.354276 65.099175 -0.000002 16.165733 0.000009 1.199196 2.678675 -1.823915 -1.352770 9.111908 0.370097 16.871558 -29.508767 -6.243231 -15.062444 -10.421737 -18.221046 -0.000000 -0.000004 -0.000003 -1.296307 2.624669 14.634724 0.231596 -1.451793 18.126304 0.049086 -0.675116 8.317031 -0.000000 -0.000001 0.000002 -0.630225 -1.217380 19.921766 0.330238 -1.724116 21.684922 0.341751 -1.752770 22.064335 -0.000000 -0.000000 -0.000001 1.780246 -6.994591 25.111515 0.487750 -2.076728 26.431840 0.536421 -2.171819 27.744804 -0.000000 -0.000000 0.000000 3.913097 -11.644066 33.865884 0.643810 -2.364599 30.457712 0.863363 -2.703143 35.420787 -0.000001 0.000000 -0.000000 -11.870970 6.469013 -0.266864 17.042406 9.084845 2.684340 -7.323128 20.373266 1.414802 -10.527359 -0.000002 0.000002 -0.000000 0.000001 -0.000000 -14.341229 -7.221872 -10.826802 14.132258 2.902910 2.454970 -12.285956 -3.493693 5.624697 -8.360327 -0.000017 -0.000005 -0.000003 0.000000 -0.000001 
